<svg xmlns="http://www.w3.org/2000/svg" xmlns:xlink="http://www.w3.org/1999/xlink" viewBox="0 0 300.00001 70"><clipPath id="a"><path transform="scale(.24)" d="M120.83332 161.4772H2362.4998v262.622H120.83332z" fill-rule="evenodd"/></clipPath><g clip-path="url(#a)" transform="translate(-145.5 -34.5)"><symbol id="b"><path transform="matrix(.001 0 0 -.001 -.031 0)" d="M871-682c-37 0-72 2-131 2-60 0-96-2-136-2-14 0-15 1-17 5-2 3-6 22-6 30 0 10 2 10 36 10 30 1 57-1 57 10 0 9-7 37-28 123-17 66-31 121-31 123l-1 3H469c-138 0-145 0-145-2 1-1 14-55 31-120 27-110 30-120 32-123 9-14 21-13 68-14 16 0 31-1 32-1 4-2 6-5 10-20 3-15 3-15 1-18-2-5-3-6-15-6-40 0-81 1-128 1s-95 0-136-2c-11 0-15 0-17 1-4 3-5 5-9 20-3 15-3 15-1 18 2 6 3 7 36 7 30 1 57 0 57 9 0 23-138 563-141 567-4 7-9 10-19 12-11 1-38 3-60 3h-6c-20 0-19 1-25 22-2 8-3 12-3 14 0 8 4 9 17 9 41 0 82-1 130-1s97 0 134 2h15c6-6 6-5 10-19 5-21 3-19-3-27h-31c-30-1-51-3-55-5-2-1-3-3-3-7 0-2 15-64 34-139l33-135h145c97 0 145 0 145 1 0 3-65 262-69 270-4 7-9 10-19 12-11 1-37 3-60 3h-6c-20 0-19 1-25 22-1 7-3 12-3 15 0 6 4 8 17 8 41 0 82-1 130-1s97 0 134 2h15c6-6 6-5 10-19 5-21 3-19-3-27h-31c-28-1-49-3-54-5-3 0-4-3-4-7 0-3 137-557 142-565 9-14 21-13 68-14 16 0 31-1 32-1 4-2 6-5 10-20 2-8 2-12 2-14 0-8-2-10-17-10z"/></symbol><use xlink:href="#b" transform="matrix(15.00697 0 0 -15.00697 204.87093 74.02091)" width="100%" height="100%"/><symbol id="c"><path transform="matrix(.001 0 0 -.001 -.035 .011)" d="M58-278h14c19 0 18-1 21-12 15-53 59-114 124-114 31 0 49 20 49 52 0 11-2 23-5 39-10 31-46 206-67 242-17 29-39 45-62 45-7 0-19-2-26-5-5-2-15-8-15-9 0 0 2-1 3-1 2-1 8-3 13-6 19-9 35-28 35-54 0-28-17-42-43-42-39 0-64 34-64 72 0 14 3 28 10 40 14 24 40 41 82 41 15 0 17 0 26-2 29-10 55-31 74-60 20 35 53 63 106 63 43 0 71-15 99-37 31-27 58-65 70-108 1-5 2-8 2-11 0-7-5-8-19-8-17 0-18 0-22 13-14 51-62 114-122 114-31 0-51-20-51-52 0-9 1-20 3-30 3-16 53-217 57-228 11-31 34-57 56-66 6-2 8-2 19-2 13 0 21 1 29 6 6 3 11 6 11 7-26 9-50 28-50 63 0 24 17 40 43 40 39 0 64-33 64-73 0-44-36-81-92-81-31 0-61 15-85 42-8 8-11 14-16 21-17-35-59-63-107-63-7 0-14 1-21 2-45 7-88 37-118 82-13 20-29 55-31 69 0 6 3 8 6 11z"/></symbol><use xlink:href="#c" transform="matrix(15.00697 0 0 -15.00697 218.17929 74.18599)" width="100%" height="100%"/><symbol id="d"><path transform="matrix(.001 0 0 -.001 -.056 .082)" d="M56-250c0 11 6 16 14 20h299V68c4 8 9 14 20 14s16-6 20-14v-298h298c8-4 15-9 15-20s-7-16-15-20H409v-298c-4-8-10-15-20-15s-15 8-19 13l-1 150v150H70c-8 4-14 9-14 20z"/></symbol><use xlink:href="#d" transform="matrix(15.00697 0 0 -15.00697 230.07796 75.25148)" width="100%" height="100%"/><use xlink:href="#c" transform="matrix(15.00697 0 0 -15.00697 262.4733 74.18599)" width="100%" height="100%"/><symbol id="f"><path transform="matrix(.001 0 0 -.001 -.033 .011)" d="M190-414c65 0 105 36 105 98 0 8 2 8 6 12h28l6-6v-132c-4-4-4-6-13-6h-8c-8 5-14 10-22 17l-9 7-15-8c-24-12-39-15-70-15-11-1-22-1-24 0-81 8-141 43-141 129 0 6 0 11 1 15 7 40 34 73 77 93 18 9 30 12 76 21 23 5 44 10 48 11 16 5 32 15 42 27 12 12 18 23 18 47 0 55-39 78-97 78-42 0-74-17-97-51-11-19-20-41-26-69-4-16-4-16-21-16-8 0-14 0-16 1-5 3-5 0-5 87V5c4 4 4 6 13 6h8L65 1c6-5 11-10 12-11l9-9 8-7c27 22 53 36 104 36 75 0 122-26 147-74 9-19 14-40 14-69 0-9 0-18-1-24-12-46-39-79-81-99-20-11-29-13-78-22-49-10-86-18-99-54-2-4-2-11-2-17 0-48 41-65 92-65z"/></symbol><symbol id="g"><path transform="matrix(.001 0 0 -.001 -.025 .011)" d="M105-436c-42 2-77 5-78 5-2 0-2 2-2 23v23h11c35 0 53 5 60 16s6 3 7 143c1 117 1 129 2 137 14 70 60 99 144 99 27 0 34 0 53-7 34-9 61-37 81-61v69h7c6-1 150-11 152-11v-46h-18c-44-2-55-8-59-35-1-3-1-86-1-183v-178h-7c-6 1-153 11-155 11v46h18c44 2 55 8 59 34 0 4 1 54 1 103s-1 98-1 104c-6 50-31 91-68 109-15 7-27 9-47 9-27 0-47-5-60-14-8-7-12-14-15-31-1-7-1-32-2-190v-181h-3c-2 0-38 3-79 6z"/></symbol><symbol id="h"><path transform="matrix(.001 0 0 -.001 -.034 .011)" d="M350-305c30 0 54-21 54-52 0-8-1-17-3-23-17-52-79-68-151-68-55 0-97 19-133 48-45 38-74 91-82 153-1 7-1 20-1 33s0 26 1 32C48-105 90-45 154-12c31 16 59 23 95 23 60 0 109-26 141-72 10-16 25-50 25-59 0-3-4-7-6-9h-14c-17 0-18 1-21 12-10 35-32 65-58 78-13 7-28 10-44 10-50 0-88-28-110-61-21-32-31-73-31-129 0-76 12-122 47-157 21-23 39-32 80-32 17 0 36 2 49 4 12 2 11 1 5 8-10 10-15 24-15 38 0 28 21 53 53 53z"/></symbol><symbol id="i"><path transform="matrix(.001 0 0 -.001 -.025 0)" d="M188-60c0-2-1-54-1-108s1-108 1-114c4-36 17-64 41-88 22-22 40-34 79-34 44 0 61 20 70 61 1 9 1 21 2 143 0 74 0 136-1 138 0 15-28 16-53 16h-24V0h8c13-3 89-3 112-3s99 0 112 3h8v-46h-16c-20 0-42-2-49-3-5-2-10-7-12-11-1-2-1-43-1-130 0-81 0-132-1-139-8-76-52-113-135-113-71 0-112 36-144 75v-327h-3c-2 0-37 3-78 6-41 2-75 5-76 5-2 0-2 2-2 23v23h18c44 2 55 8 59 34 0 5 1 140 1 274s-1 267-1 269c-7 13-23 14-47 14H25V0h8c13-3 89-3 112-3s99 0 112 3h8v-46h-30c-24 0-40-1-47-14z"/></symbol><symbol id="j"><path transform="matrix(.001 0 0 -.001 -.018 .01)" d="M141-600c-3 62-21 115-51 146-17 19-39 30-63 32h-9v37h79v137c0 94 0 141 1 148 7 66 49 110 123 110 61 0 94-42 107-90 4-16 5-27 5-66v-35h-40v35c0 25 0 38-1 46-6 43-25 71-54 71-22 0-40-14-49-39-8-21-7-12-8-173v-144h135v-46H181v-184h-40z"/></symbol><symbol id="k"><path transform="matrix(.001 0 0 -.001 -.034 .011)" d="M116-305c32 0 54-25 54-54 0-16-10-36-22-44 0-5 55-8 67-8 50 0 84 28 97 71 5 13 6 25 6 50v22h-14c-72 4-126 15-174 37-25 11-40 21-57 38-21 21-39 49-39 86 0 13 3 26 8 38 19 49 80 80 148 80 43 0 82-14 114-41 8-7 18-21 25-28v4c9 32 36 60 71 60 45 0 79-29 90-65 2-7 2-9 3-47v-39h-40v36c0 39-1 45-6 55-4 9-11 14-19 14s-16-5-20-14c-6-12-6-9-6-140 0-130 0-128-6-146-20-64-89-108-178-108-74 0-130 21-147 57-5 11-8 22-8 32 0 29 21 54 53 54zm202 130c-1 56-1 59-3 66-11 44-51 83-106 83-47 0-83-35-83-80 0-16 4-32 11-45 25-47 85-75 175-81 2-1 5-1 5-1 1 0 1 26 1 58z"/></symbol><use xlink:href="#e" transform="matrix(15.00697 0 0 -15.00697 270.7853 76.93227)" width="100%" height="100%"/><use xlink:href="#f" transform="matrix(15.00697 0 0 -15.00697 274.77717 74.18599)" width="100%" height="100%"/><use xlink:href="#g" transform="matrix(15.00697 0 0 -15.00697 280.56986 74.18599)" width="100%" height="100%"/><use xlink:href="#h" transform="matrix(15.00697 0 0 -15.00697 289.04878 74.18599)" width="100%" height="100%"/><use xlink:href="#i" transform="matrix(15.00697 0 0 -15.00697 295.57685 74.02091)" width="100%" height="100%"/><use xlink:href="#e" transform="matrix(15.00697 0 0 -15.00697 303.80067 76.93227)" width="100%" height="100%"/><use xlink:href="#j" transform="matrix(15.00697 0 0 -15.00697 307.56739 74.17098)" width="100%" height="100%"/><use xlink:href="#i" transform="matrix(15.00697 0 0 -15.00697 313.51017 74.02091)" width="100%" height="100%"/><use xlink:href="#k" transform="matrix(15.00697 0 0 -15.00697 321.98908 74.18599)" width="100%" height="100%"/><use xlink:href="#j" transform="matrix(15.00697 0 0 -15.00697 329.25245 74.17098)" width="100%" height="100%"/><use xlink:href="#e" transform="matrix(15.00697 0 0 -15.00697 335.0752 76.93227)" width="100%" height="100%"/></g><clipPath id="l"><path transform="scale(.24)" d="M120.83332 258.39726H2362.4998v59.40259H120.83332z" fill-rule="evenodd"/></clipPath><g clip-path="url(#l)" transform="translate(-145.5 -34.5)"><symbol id="m"><path transform="matrix(.001 0 0 -.001 -.025 0)" d="M188-60c0-2-1-54-1-108s1-108 1-114c4-36 17-64 41-88 22-22 40-34 79-34 44 0 61 20 70 61 1 9 1 21 2 143 0 74 0 136-1 138 0 15-28 16-53 16h-24V0h8c13-3 89-3 112-3s99 0 112 3h8v-46h-30c-24 0-40-1-47-14 0-2-1-54-1-108s1-108 1-114c4-36 17-64 41-88 22-22 40-34 79-34 44 0 61 20 70 61 1 9 1 21 2 143 0 74 0 136-1 138 0 15-28 16-53 16h-24V0h8c13-3 89-3 112-3s99 0 112 3h8v-46h-16c-20 0-42-2-49-3-5-2-10-7-12-11-1-2-1-43-1-130 0-81 0-132-1-139-8-77-53-113-137-113-49 0-88 19-119 48-11 11-19 23-27 33l-2-5c-15-49-58-74-119-76-76 0-120 30-153 77l-1 1c-1 0-1-7-1-38v-40h-3c-2 0-36 3-76 6-41 2-74 5-75 5-2 0-2 2-2 23v23h18c44 2 55 8 59 34 0 5 1 77 1 148s-1 141-1 143c-7 13-23 14-47 14H25V0h8c13-3 89-3 112-3s99 0 112 3h8v-46h-30c-24 0-40-1-47-14z"/></symbol><symbol id="n"><path transform="matrix(.001 0 0 -.001 -.026 0)" d="M131-669c-35 0-62 21-62 60 0 27 11 42 27 51 10 7 19 9 33 9 13 0 22-2 32-9 16-9 27-24 27-51 0-37-25-57-57-60zM247 0h8v-46h-23c-38-1-40-3-47-16v-380h-3c-2 0-36 3-76 6-40 2-73 5-74 5-2 0-2 2-2 23v23h11c30 0 52 2 59 20 4 10 4 12 4 160 0 98 0 143-1 145-2 4-7 9-12 11-7 1-29 3-49 3H26V0h8c12-2 87-3 109-3 21 0 93 0 104 3z"/></symbol><symbol id="o"><path transform="matrix(.001 0 0 -.001 -.025 0)" d="M188-60c0-2-1-54-1-108s1-108 1-114c4-36 17-64 41-88 22-22 40-34 79-34 44 0 61 20 70 61 1 9 1 21 2 143 0 74 0 136-1 138 0 15-28 16-53 16h-24V0h8c13-3 89-3 112-3s99 0 112 3h8v-46h-16c-20 0-42-2-49-3-5-2-10-7-12-11-1-2-1-43-1-130 0-81 0-132-1-139-8-73-49-110-127-113-76 0-120 30-153 77l-1 1c-1 0-1-7-1-38v-40h-3c-2 0-36 3-76 6-41 2-74 5-75 5-2 0-2 2-2 23v23h18c44 2 55 8 59 34 0 5 1 77 1 148s-1 141-1 143c-7 13-23 14-47 14H25V0h8c13-3 89-3 112-3s99 0 112 3h8v-46h-30c-24 0-40-1-47-14z"/></symbol><use xlink:href="#m" transform="matrix(15.00697 0 0 -15.00697 150.61508 74.02091)" width="100%" height="100%"/><use xlink:href="#n" transform="matrix(15.00697 0 0 -15.00697 163.1309 74.02091)" width="100%" height="100%"/><use xlink:href="#o" transform="matrix(15.00697 0 0 -15.00697 167.28783 74.02091)" width="100%" height="100%"/></g><clipPath id="p"><path transform="scale(.24)" d="M120.83332 317.79985H2362.4998v43.77035H120.83332z" fill-rule="evenodd"/></clipPath><g clip-path="url(#p)" transform="translate(-145.5 -34.5)"><use xlink:href="#c" transform="matrix(10.60993 0 0 -10.60993 160.40099 83.14181)" width="100%" height="100%"/></g><clipPath id="q"><path transform="scale(.24)" d="M120.83332 214.62689H2362.4998v59.40261H120.83332z" fill-rule="evenodd"/></clipPath><g clip-path="url(#q)" transform="translate(-145.5 -34.5)"><symbol id="r"><path transform="matrix(.001 0 0 -.001 -.08300001 0)" d="M416 0h11v-46h-59c-30 0-51-1-65-15l-1-300v-299c-6-5-4-6-17-6-9 0-10 0-12 3-5 5-22 18-31 23-37 23-84 36-140 38H83v46h19c38-1 74-8 103-19 4-2 7-3 8-3v517c-7 5-12 11-24 12-11 2-46 3-75 3H88V0h12c17-3 125-3 157-3s142 0 159 3z"/></symbol><use xlink:href="#r" transform="matrix(15.00697 0 0 -15.00697 178.60356 63.516035)" width="100%" height="100%"/></g><clipPath id="s"><path transform="scale(.24)" d="M120.83332 302.16758H2362.4998v59.40262H120.83332z" fill-rule="evenodd"/></clipPath><g clip-path="url(#s)" transform="translate(-145.5 -34.5)"><symbol id="t"><path transform="matrix(.001 0 0 -.001 -.05 0)" d="M110-429c37 0 60-28 60-60 0-31-21-60-56-60-3 0-5 0-5-1s5-9 9-17c22-32 49-52 94-52 86 0 131 71 131 155 0 58-22 106-67 167-22 28-27 35-140 160-45 51-83 94-84 95-2 3-2 6-2 23V0h371v-3c3-6 25-177 28-183v-3h-40v3c-8 45-9 54-14 68-3 10-7 20-10 21-6 3-66 5-167 5l-76-1 59-56c68-65 65-62 100-92 66-57 92-84 113-115 24-35 35-65 35-109 0-12-1-24-2-33-17-98-95-168-212-168-102 0-185 80-185 175 0 34 22 62 60 62z"/></symbol><use xlink:href="#t" transform="matrix(15.00697 0 0 -15.00697 178.10834 84.525798)" width="100%" height="100%"/></g><clipPath id="u"><path transform="scale(.24)" d="M120.83332 283.40888H2362.4998v21.88517H120.83332z" fill-rule="evenodd"/></clipPath><g clip-path="url(#u)" transform="translate(-145.5 -34.5)"><path d="M176.8186712 70.26917h9.0041832v.7503486h-9.0041832z"/></g><clipPath id="v"><path transform="scale(.24)" d="M120.83332 270.90306H2362.4998v46.89679H120.83332z" fill-rule="evenodd"/></clipPath><g clip-path="url(#v)" transform="translate(-145.5 -34.5)"><use xlink:href="#c" transform="matrix(15.00697 0 0 -15.00697 187.63776 74.18599)" width="100%" height="100%"/></g><clipPath id="w"><path transform="scale(.24)" d="M120.83332 161.4772H2362.4998v262.622H120.83332z" fill-rule="evenodd"/></clipPath><g clip-path="url(#w)" transform="translate(-145.5 -34.5)"><symbol id="x"><path transform="matrix(.001 0 0 -.001 -.021 0)" d="M415 0c6 0 7-1 9-1 4-3 5-5 9-21 3-13 3-14 2-17-3-7-3-7-49-7-42-1-63-2-75-5-7-1-13-4-13-9 0-6 140-561 141-562 6-8 14-9 76-9 83 2 126 3 126 80 0 19-3 43-9 79-2 13-3 25-3 27 6 6 3 8 20 8 11 0 13 0 15-2 2-1 4-3 4-5 1-1 36-215 36-223 0-2-1-3-1-4-2-5 14-6-134-6H101c-6 6-7 6-13 26-4 11-21 60-37 110-23 69-30 89-30 96 0 3 1 3 3 5 3 3 3 3 16 3h3c15 0 15-1 24-30 21-61 40-101 59-122 14-16 38-29 65-35 21-6 30-6 88-6h31c28 0 29 1 29 5 0 2-31 128-70 281-77 308-69 282-80 289-5 3-11 5-25 6-14 2-52 3-81 3H55c-6 6-6 5-10 19-5 20-3 20 4 27h15c35-2 98-2 164-2 67 0 131 2 187 2z"/></symbol><use xlink:href="#x" transform="matrix(10.60993 0 0 -10.60993 195.61261 68.01813)" width="100%" height="100%"/></g><clipPath id="y"><path transform="scale(.24)" d="M120.83332 255.27079H2362.4998v75.03488H120.83332z" fill-rule="evenodd"/></clipPath><g clip-path="url(#y)" transform="translate(-145.5 -34.5)"><symbol id="z"><path transform="matrix(.001 0 0 -.001 -.05500001 .20500002)" d="M118 162l9-5c19-9 35-28 35-54 0-28-18-42-44-42-37 0-63 31-63 71 0 45 37 73 84 73 25 0 49-11 73-32 40-38 67-98 91-205 8-34 19-90 46-231l23-122h56c62 0 60 0 63-6 1-3 7-26 7-32 0-8-4-8-63-8-52 0-55 0-55-2 3-3 22-130 39-197 5-20 18-38 38-38 9 0 21 3 30 6l-9 5c-19 9-35 28-35 54 0 28 18 42 44 42 36 0 63-31 63-69 0-46-40-72-85-75-37 0-59 13-83 33-31 27-48 64-63 132-4 15-21 106-21 108 0 1-19 1-48 1-53 0-52 0-55 6-1 1-3 9-5 16-4 16-3 19 2 22 3 2 6 2 50 2h47v3c-4 4-79 445-102 508-9 22-22 42-40 42-10 0-20-4-29-6z"/></symbol><use xlink:href="#z" transform="matrix(15.00697 0 0 -15.00697 244.72992 77.09734)" width="100%" height="100%"/></g><clipPath id="A"><path transform="scale(.24)" d="M120.83332 161.4772H2362.4998v262.622H120.83332z" fill-rule="evenodd"/></clipPath><g clip-path="url(#A)" transform="translate(-145.5 -34.5)"><use xlink:href="#x" transform="matrix(10.60993 0 0 -10.60993 253.1667 68.01813)" width="100%" height="100%"/><symbol id="B"><path transform="matrix(.001 0 0 -.001 -.384 .025)" d="M712-899h-35l-13 7c-45 25-84 53-118 85-83 80-152 190-161 331-1 9-1 101-1 246 0 255 0 237 6 239 2 1 20 1 54 1 56 0 57 0 59-6 1-2 1-63 1-244 1-262 0-247 6-285 21-134 91-250 194-321 7-4 12-9 13-10s1-10 1-20v-17z"/></symbol><use xlink:href="#B" transform="matrix(15.00697 0 0 -15.00697 344.32838 54.887025)" width="100%" height="100%"/><symbol id="C"><path transform="matrix(.001 0 0 -.001 -.384 .89900007)" d="M718 893v-17c0-10 0-19-1-20s-6-6-13-10c-80-55-142-139-174-237-12-35-19-70-24-113-1-14-1-37-2-257 0-180 0-241-1-243-2-6-3-6-59-6-40 0-52 0-55 1l-4 4c-1 2-1 155-1 287 0 98 0 184 1 194 4 63 20 121 49 179 50 101 130 183 232 238l11 6h35z"/></symbol><use xlink:href="#C" transform="matrix(15.00697 0 0 -15.00697 344.32838 98.76741)" width="100%" height="100%"/><symbol id="D"><path transform="matrix(.001 0 0 -.001 -.17 .675)" d="M389-1159l-4 4c-1 3-1 53-1 230 0 145 0 234-1 246-10 169-81 311-200 400-7 5-12 10-12 11-1 1-1 10-1 18s0 17 1 18c0 1 5 6 12 11C296-137 372-2 383 179c1 12 1 101 1 246 0 250 0 232 6 234 2 1 28 1 54 1s52 0 54-1c6-2 6 16 6-235 0-140 0-233-1-242-5-75-25-145-61-212-45-85-115-159-199-211l-14-9 14-9c59-37 111-84 153-139 63-83 100-181 107-284 1-9 1-102 1-242 0-251 0-233-6-235-2-1-21-1-43-1-29 0-64 0-66 1z"/></symbol><use xlink:href="#D" transform="matrix(15.00697 0 0 -15.00697 341.11689 84.15062)" width="100%" height="100%"/><symbol id="E"><path transform="matrix(.001 0 0 -.001 -.384 .017)" d="M389-309l-4 4c-1 2-1 37-1 155 0 167 0 157 6 159 2 1 28 1 54 1s52 0 54-1c6-2 6 8 6-159s0-157-6-159c-2-1-21-1-43-1-29 0-64 0-66 1z"/></symbol><use xlink:href="#E" transform="matrix(15.00697 0 0 -15.00697 344.32838 57.768365)" width="100%" height="100%"/><use xlink:href="#E" transform="matrix(15.00697 0 0 -15.00697 344.32838 87.03196)" width="100%" height="100%"/></g><clipPath id="F"><path transform="scale(.24)" d="M120.83332 167.7301H2362.4998v75.03489H120.83332z" fill-rule="evenodd"/></clipPath><g clip-path="url(#F)" transform="translate(-145.5 -34.5)"><symbol id="G"><path transform="matrix(.001 0 0 -.001 -.035 0)" d="M42 0h8c20-2 54-2 91-2s76 2 110 2c14 0 15-4 19-22 2-6 3-11 3-14 0-8-5-10-19-10-24-2-46-11-46-29 0-4 1-9 4-15 1-4 18-33 37-65l34-58h238l12 150c-10 15-36 16-64 17h-20l-4 3c-2 3-3 6-6 16-5 20-3 20 4 27h12c29-2 76-2 123-2 48 0 88 2 126 2 15 0 15-4 19-22 2-8 3-12 3-14 0-10-6-10-25-10-24 0-61-2-65-11-4-5-57-646-58-649 0-4-4-7-6-10h-17c-23 0-25 0-32 12-9 13-349 598-359 608-22 32-54 48-102 50H48l-4 3c-2 3-9 26-9 32 0 5 4 8 7 11zm474-260c0 1-47 1-103 1l-103-1 90-152c81-138 90-153 90-150 1 1 26 286 26 302z"/></symbol><use xlink:href="#G" transform="matrix(15.00697 0 0 -15.00697 368.88215 53.011156)" width="100%" height="100%"/><symbol id="H"><path transform="matrix(.001 0 0 -.001 -.078 -.19000001)" d="M78-250c0 31 25 60 61 60 31 0 60-25 60-61 0-31-25-59-61-59-34 0-60 26-60 60z"/></symbol><use xlink:href="#H" transform="matrix(15.00697 0 0 -15.00697 383.78407 50.15983)" width="100%" height="100%"/><use xlink:href="#c" transform="matrix(15.00697 0 0 -15.00697 390.30226 53.17623)" width="100%" height="100%"/><symbol id="I"><path transform="matrix(.001 0 0 -.001 -.08300001 .13800001)" d="M674-636c-3 0-5 0-9 2-6 3-558 264-569 269-9 5-12 9-13 17 0 7 3 14 7 17 2 2 133 64 292 139L670-56h6c11-1 18-10 18-20 0-4-1-7-3-11-4-5 24 8-292-141L151-346l266-126c147-70 268-127 270-129 5-4 7-8 7-14 0-9-8-21-20-21zM84 118c0 9 6 16 14 20h581c8-4 15-9 15-20s-7-16-16-20H99c-8 5-15 10-15 20z"/></symbol><use xlink:href="#I" transform="matrix(15.00697 0 0 -15.00697 404.10679 55.082117)" width="100%" height="100%"/><symbol id="J"><path transform="matrix(.001 0 0 -.001 -.04 .011)" d="M89-683c-2 0-4 1-6 3-3 2-4 5-7 16-4 16-4 20 1 24 3 3 3 3 24 3 29 1 49-2 46 21 0 1-101 407-101 409-5 23-6 35-6 57C40-77 69-24 118-2c18 9 35 13 55 13 121 0 249-140 249-291 0-88-46-144-114-160-6-1-15-2-25-2s-19 1-25 2c-25 6-54 20-76 38-4 4-6 5-6 3 0-1 17-65 36-143 30-118 34-138 34-143 0-6-6-9-12-9-2 0-143 11-145 11zm247 358c0 27-4 50-18 106-23 93-39 130-73 161-22 21-46 32-67 32-15 0-29-5-40-16-18-18-24-36-24-72 0-21 1-30 6-56 3-16 36-147 37-152 1-1 4-6 8-10 30-40 65-65 98-72 3 0 8-1 12-1 45 0 61 33 61 80z"/></symbol><use xlink:href="#J" transform="matrix(15.00697 0 0 -15.00697 419.62916 53.17623)" width="100%" height="100%"/><symbol id="K"><path transform="matrix(.001 0 0 -.001 -.078 .194)" d="M78-60c0 34 27 60 62 60 9 0 18-2 27-6 3-2 5-3 6-3V3c-4 59-26 111-68 154-8 8-10 12-10 15 0 5 17 22 22 22 4 0 9-5 18-14 40-43 64-94 73-153 1-8 2-22 2-35 0-58-19-113-73-113-35 0-59 28-59 61z"/></symbol><use xlink:href="#K" transform="matrix(15.00697 0 0 -15.00697 426.636 55.92251)" width="100%" height="100%"/></g><clipPath id="L"><path transform="scale(.24)" d="M120.83332 258.39726H2362.4998v75.03484H120.83332z" fill-rule="evenodd"/></clipPath><g clip-path="url(#L)" transform="translate(-145.5 -34.5)"><use xlink:href="#G" transform="matrix(15.00697 0 0 -15.00697 355.3993 74.77126)" width="100%" height="100%"/><symbol id="M"><path transform="matrix(.001 0 0 -.001 -.039 .011)" d="M406-121c-3 0-6 3-12 10-44 51-110 85-185 85-59 0-84-43-84-102 0-23 4-49 11-80 1-6 2-11 2-13 1-2 2-2 38-2 66-1 99-5 134-14 56-14 93-40 109-93 2-7 2-16 2-25 0-7 0-14-1-18-12-42-54-69-110-69h-3c-8 0-15 0-16 1-125 14-217 97-244 198-5 23-8 51-8 75 0 48 13 83 33 113 9 13 26 31 40 39 27 19 57 27 93 27 75 0 143-28 193-72 11-10 31-30 31-37 0-5-17-23-23-23zm-33-232c0 13-1 21-7 34-25 38-58 51-136 57-14 1-42 2-61 2-12 0-20 0-20-1 0-2 7-22 11-33 16-42 39-71 73-91 22-12 48-20 72-20 38 0 64 17 68 52z"/></symbol><use xlink:href="#M" transform="matrix(15.00697 0 0 -15.00697 366.71458 74.93634)" width="100%" height="100%"/><symbol id="N"><path transform="matrix(.001 0 0 -.001 -.033 .194)" d="M262 192c39 0 77 0 108 2h13c6-6 6-5 10-19 5-21 3-19-3-27h-25c-27-1-45 0-45-9 0-3 22-92 71-288 62-248 69-279 69-285 0-5-7-8-10-8-4 0-32 14-46 24-15 9-24 21-32 29-19-28-49-52-92-52-47 0-87 18-122 45C97-350 44-267 34-179c-1 6-1 14-1 22 0 48 9 81 30 112 24 31 55 55 109 55 10 0 19 0 25-1 25-6 53-20 75-38 5-3 7-5 7-3-4 4-36 164-49 173-6 4-28 7-58 7-22 0-22 0-27 22-1 7-3 11-3 15 0 6 4 8 15 8 33 0 67-1 105-1zm90-518l-54 217-8 11c-25 31-67 72-111 72-42 0-61-34-61-80 0-8 1-16 1-23 5-36 27-126 41-164 18-50 59-112 117-112 44 0 63 36 75 79z"/></symbol><use xlink:href="#N" transform="matrix(15.00697 0 0 -15.00697 373.61216 77.68262)" width="100%" height="100%"/><use xlink:href="#H" transform="matrix(15.00697 0 0 -15.00697 384.0068 71.91994)" width="100%" height="100%"/><use xlink:href="#c" transform="matrix(15.00697 0 0 -15.00697 390.525 74.93634)" width="100%" height="100%"/><symbol id="O"><path transform="matrix(.001 0 0 -.001 -.056 -.133)" d="M56-347c0 12 6 17 16 20h318l318-1c7-4 14-8 14-19s-7-16-15-20H70c-8 4-14 9-14 20zm0 194c0 11 6 16 14 20h637c8-4 15-9 15-20 0-12-8-15-14-20H72c-10 3-16 8-16 20z"/></symbol><use xlink:href="#O" transform="matrix(15.00697 0 0 -15.00697 403.92436 72.77534)" width="100%" height="100%"/><use xlink:href="#J" transform="matrix(15.00697 0 0 -15.00697 419.8519 74.93634)" width="100%" height="100%"/><use xlink:href="#M" transform="matrix(15.00697 0 0 -15.00697 426.27348 74.93634)" width="100%" height="100%"/><use xlink:href="#N" transform="matrix(15.00697 0 0 -15.00697 433.17109 77.68262)" width="100%" height="100%"/><use xlink:href="#K" transform="matrix(15.00697 0 0 -15.00697 440.56434 77.68262)" width="100%" height="100%"/></g><clipPath id="P"><path transform="scale(.24)" d="M120.83332 349.06437H2362.4998v68.78193H120.83332z" fill-rule="evenodd"/></clipPath><g clip-path="url(#P)" transform="translate(-145.5 -34.5)"><symbol id="Q"><path transform="matrix(.001 0 0 -.001 -.038 .011)" d="M137 11c6 0 11-1 16-2 30-7 53-31 72-75 9-21 23-69 23-78 0-10-3-9-19-9h-4c-15 0-14 1-20 22-16 64-30 91-50 102-6 3-19 3-24 1-12-7-14-17-14-37 0-6 1-13 1-18 5-33 148-583 148-603 0-6-7-8-12-8-1 0-144 10-149 12-4 2-5 5-9 21-3 13-3 14-2 17 3 6 5 7 28 7 28 1 48-2 45 21-1 3-29 119-63 256L39-102c-1 5-1 11-1 17 0 60 40 96 99 96z"/></symbol><use xlink:href="#Q" transform="matrix(15.00697 0 0 -15.00697 359.95814 96.69645)" width="100%" height="100%"/><use xlink:href="#J" transform="matrix(15.00697 0 0 -15.00697 364.45509 96.69645)" width="100%" height="100%"/><use xlink:href="#I" transform="matrix(15.00697 0 0 -15.00697 376.03907 98.60233)" width="100%" height="100%"/><use xlink:href="#c" transform="matrix(15.00697 0 0 -15.00697 391.4864 96.69645)" width="100%" height="100%"/><use xlink:href="#I" transform="matrix(15.00697 0 0 -15.00697 405.29093 98.60233)" width="100%" height="100%"/><symbol id="R"><path transform="matrix(.001 0 0 -.001 -.021 .011)" d="M463-431c-13 0-26 6-36 15-10 10-9 5-50 169-20 82-37 150-38 152-2 5-17 24-25 32-21 22-41 36-76 36-45 0-56-32-56-78 0-8 0-15 1-23 6-39 17-77 49-163 16-42 18-50 18-67 0-49-36-84-92-84-30 0-51 13-72 32-25 24-49 65-62 109-2 7-3 11-3 14 0 4 4 7 6 9h14c19 0 16 0 20-9 11-42 28-75 49-96 15-15 28-21 44-21h5c12 0 14 7 14 25 0 21-1 26-22 82-29 78-40 112-46 147-2 13-2 17-2 37 0 18 0 24 1 31 7 35 24 59 51 75 21 11 51 18 78 18 46 0 76-22 102-46 6-6 12-11 12-11 15 33 44 56 91 56 14 0 16 0 24-2 38-13 65-55 86-137 2-8 3-12 3-15 0-9-4-9-19-9-16 0-18 1-20 8-11 42-18 64-26 81-11 24-24 36-39 38-23 0-28-18-28-42 0-5 0-11 1-16 0 0 76-304 76-318 0-19-16-29-33-29z"/></symbol><use xlink:href="#R" transform="matrix(15.00697 0 0 -15.00697 420.52818 96.69645)" width="100%" height="100%"/><use xlink:href="#J" transform="matrix(15.00697 0 0 -15.00697 429.39543 96.69645)" width="100%" height="100%"/><symbol id="S"><path transform="matrix(.001 0 0 -.001 -.078 0)" d="M78-60c0 31 25 60 61 60 31 0 60-25 60-61 0-31-25-59-61-59-34 0-60 26-60 60z"/></symbol><use xlink:href="#S" transform="matrix(15.00697 0 0 -15.00697 436.40226 96.53137)" width="100%" height="100%"/></g></svg>